HIERARCHY
ROOT root
{
	OFFSET	0	13.1	24.9
	CHANNELS 6  Xposition Yposition Zposition Xrotation Yrotation Zrotation
	JOINT spine_1
	{
		OFFSET	0	9.99999	0
		CHANNELS 3  Xrotation Yrotation Zrotation
		JOINT spine_2
		{
			OFFSET	0	112	-10
			CHANNELS 3  Xrotation Yrotation Zrotation
			JOINT spine_3
			{
				OFFSET	0	206.5	19.3
				CHANNELS 3  Xrotation Yrotation Zrotation
				JOINT spine_4
				{
					OFFSET	0	110.4	14.6
					CHANNELS 3  Xrotation Yrotation Zrotation
					JOINT neck_1
					{
						OFFSET	0	71.8	-50.3
						CHANNELS 3  Xrotation Yrotation Zrotation
						JOINT neck_2
						{
							OFFSET	0	86.2	-25.8
							CHANNELS 3  Xrotation Yrotation Zrotation
							JOINT head_ee
							{
								OFFSET	0	179.8	-8.7
								CHANNELS 3  Xrotation Yrotation Zrotation
								End Site
								{
									OFFSET	1	0	0
								}
							}
						}
					}
					JOINT left_clavicle
					{
						OFFSET	-43.2	22.4	-70.8
						CHANNELS 3  Xrotation Yrotation Zrotation
						JOINT left_shoulder
						{
							OFFSET	-93.9	-5.79999	48.7
							CHANNELS 3  Xrotation Yrotation Zrotation
							JOINT left_elbow
							{
								OFFSET	-291.4	-30.8	15.2
								CHANNELS 3  Xrotation Yrotation Zrotation
								JOINT left_lowarm_twist
								{
									OFFSET	-110.7	-3.89999	13.6
									CHANNELS 3  Xrotation Yrotation Zrotation
									JOINT left_hand
									{
										OFFSET	-110.7	-3.89999	13.6
										CHANNELS 3  Xrotation Yrotation Zrotation
										JOINT left_ee
										{
											OFFSET	-80.8	-5.10001	12.1
											CHANNELS 3  Xrotation Yrotation Zrotation
											End Site
											{
												OFFSET	1	0	0
											}
										}
									}
								}
							}
						}
					}
					JOINT right_clavicle
					{
						OFFSET	43.2	22.4	-70.8
						CHANNELS 3  Xrotation Yrotation Zrotation
						JOINT right_shoulder
						{
							OFFSET	93.9	-5.79999	48.7
							CHANNELS 3  Xrotation Yrotation Zrotation
							JOINT right_elbow
							{
								OFFSET	291.4	-30.8	15.2
								CHANNELS 3  Xrotation Yrotation Zrotation
								JOINT right_lowarm_twist
								{
									OFFSET	110.7	-3.89999	13.6
									CHANNELS 3  Xrotation Yrotation Zrotation
									JOINT right_hand
									{
										OFFSET	110.7	-3.89999	13.6
										CHANNELS 3  Xrotation Yrotation Zrotation
										JOINT right_ee
										{
											OFFSET	80.8	-5.10001	12.1
											CHANNELS 3  Xrotation Yrotation Zrotation
											End Site
											{
												OFFSET	1	0	0
											}
										}
									}
								}
							}
						}
					}
				}
			}
		}
	}
	JOINT left_hip
	{
		OFFSET	-82.8	-127.5	0.300001
		CHANNELS 3  Xrotation Yrotation Zrotation
		JOINT left_knee
		{
			OFFSET	-28.2	-396.7	2.2
			CHANNELS 3  Xrotation Yrotation Zrotation
			JOINT left_ankle
			{
				OFFSET	-11.7	-411.3	35.4
				CHANNELS 3  Xrotation Yrotation Zrotation
				JOINT left_toes
				{
					OFFSET	0	-60	-88.6
					CHANNELS 3  Xrotation Yrotation Zrotation
					JOINT left_foot_ee
					{
						OFFSET	-22.5	-16.5	-42.2
						CHANNELS 3  Xrotation Yrotation Zrotation
						End Site
						{
							OFFSET	1	0	0
						}
					}
				}
			}
		}
	}
	JOINT right_hip
	{
		OFFSET	82.8	-127.5	0.300001
		CHANNELS 3  Xrotation Yrotation Zrotation
		JOINT right_knee
		{
			OFFSET	28.2	-396.7	2.2
			CHANNELS 3  Xrotation Yrotation Zrotation
			JOINT right_ankle
			{
				OFFSET	11.7	-411.3	35.4
				CHANNELS 3  Xrotation Yrotation Zrotation
				JOINT right_toes
				{
					OFFSET	0	-60	-88.6
					CHANNELS 3  Xrotation Yrotation Zrotation
					JOINT right_foot_ee
					{
						OFFSET	22.5	-16.5	-42.2
						CHANNELS 3  Xrotation Yrotation Zrotation
						End Site
						{
							OFFSET	1	0	0
						}
					}
				}
			}
		}
	}
}
MOTION
Frames: 11
Frame Time: 0.02
2526.67381771 755.284 -1462.19898978 -153.675479717 71.4485509337 154.870855251 4.91103 0.0554526 -0.184358 4.91104 0.0670714 -0.180456 4.91082 0.0892251 -0.170593 4.91078 0.0611635 -0.182543 -26.4445 14.2008 1.07701 -28.1825 26.8531 9.07016 -0.0 0.0 -0.0 0.175358 18.2166 2.39739 -25.7681 -33.4196 67.8149 0.198123 -5.60546 0.00969935 60.8964 -1.85438 -7.19 -4.66423 29.1782 -13.7762 -0.0 0.0 -0.0 11.6601 -18.0978 -20.5752 -9.23805 22.4222 -66.3362 1.19376 30.5969 -0.326552 -79.9735 7.81847 -5.2801 7.29735 -34.7606 -66.3638 0.0 0.0 0.0 19.627 -9.73892 -9.1684 -45.0686 -0.820306 6.69278 34.4012 4.16887 -4.34134 19.582 -0.0 -0.0 -0.0 0.0 -0.0 17.2341 -5.59697 -5.45108 -2.25101 -0.0861164 -0.334698 16.1307 2.77107 2.27599 -24.5562 0.0 0.0 0.0 0.0 0.0 
2516.04635712 749.855 -1441.16821982 -157.385323304 67.6000030413 158.936844093 4.9816 -0.123979 -0.168879 4.98161 -0.112981 -0.176426 4.98194 -0.0901417 -0.189117 4.98191 -0.118878 -0.172508 -25.5654 14.3408 1.0137 -27.2613 27.163 8.85985 -0.0 0.0 -0.0 -0.0132603 18.4204 2.1345 -28.6636 -33.6478 67.8317 0.200302 -5.66669 0.00991328 60.925 -1.85697 -7.19259 -4.64459 28.8692 -13.8823 -0.0 0.0 -0.0 11.6554 -19.1648 -20.3438 -6.47177 24.1691 -67.6155 1.50493 36.702 -0.499221 -78.818 7.6717 -5.2941 7.36484 -34.5768 -67.6487 0.0 0.0 0.0 19.7414 -9.37169 -9.71993 -41.7895 -0.584522 6.24695 33.9025 4.99087 -4.29096 19.5979 -0.0 -0.0 -0.0 0.0 -0.0 16.8761 -4.92695 -5.52 -2.01772 -0.077804 -0.299861 18.2048 7.01219 2.58546 -24.4255 0.0 0.0 0.0 0.0 0.0 
2501.51555588 743.092 -1415.96089236 -159.325332832 63.4110703195 161.352845096 4.80755 -0.0145341 0.0169604 4.80755 -0.0155839 0.0160012 4.80754 -0.0174968 0.0138837 4.80754 -0.0150846 0.0164728 -22.162 14.4636 -0.684156 -23.6513 28.1881 6.44836 -0.0 0.0 -0.0 -0.604567 17.8253 1.16412 -30.4837 -30.3319 69.3082 0.22743 -6.42811 0.0127713 59.5557 -1.73453 -7.06679 -4.44501 28.9918 -12.6886 -0.0 0.0 -0.0 11.3125 -22.0878 -19.1471 -2.69673 26.8299 -69.3344 2.30592 48.7929 -1.04595 -77.2172 7.46786 -5.30855 7.28899 -30.5763 -68.227 0.0 0.0 0.0 25.037 -7.94526 -11.6844 -36.7655 -0.273918 5.54014 20.1217 8.62904 -2.74673 12.3742 -0.0 -0.0 -0.0 0.0 -0.0 15.3482 -5.25992 -5.91676 -1.21037 -0.047942 -0.179558 21.9558 11.7662 3.13522 -23.8464 0.0 0.0 0.0 0.0 0.0 
2504.22915684 743.092 -1403.34581229 -160.894829446 61.1308866649 163.125589329 4.80755 -0.0145341 0.0169604 4.80755 -0.0155839 0.0160012 4.80754 -0.0174968 0.0138837 4.80754 -0.0150846 0.0164728 -22.162 14.4636 -0.684156 -23.6513 28.1881 6.44836 -0.0 0.0 -0.0 -0.604567 17.8253 1.16412 -30.4837 -30.3319 69.3082 0.22743 -6.42811 0.0127713 59.5557 -1.73453 -7.06679 -4.44501 28.9918 -12.6886 -0.0 0.0 -0.0 11.3125 -22.0878 -19.1471 -2.69673 26.8299 -69.3344 2.30592 48.7929 -1.04595 -77.2172 7.46786 -5.30855 7.28899 -30.5763 -68.227 0.0 0.0 0.0 25.037 -7.94526 -11.6844 -36.7655 -0.273918 5.54014 20.1217 8.62904 -2.74673 12.3742 -0.0 -0.0 -0.0 0.0 -0.0 15.3482 -5.25992 -5.91676 -1.21037 -0.047942 -0.179558 21.9558 11.7662 3.13522 -23.8464 0.0 0.0 0.0 0.0 0.0 
2506.19099767 743.092 -1395.54010617 -161.747918345 59.6982694286 164.10649661 4.80755 -0.0145341 0.0169604 4.80755 -0.0155839 0.0160012 4.80754 -0.0174968 0.0138837 4.80754 -0.0150846 0.0164728 -22.162 14.4636 -0.684156 -23.6513 28.1881 6.44836 -0.0 0.0 -0.0 -0.604567 17.8253 1.16412 -30.4837 -30.3319 69.3082 0.22743 -6.42811 0.0127713 59.5557 -1.73453 -7.06679 -4.44501 28.9918 -12.6886 -0.0 0.0 -0.0 11.3125 -22.0878 -19.1471 -2.69673 26.8299 -69.3344 2.30592 48.7929 -1.04595 -77.2172 7.46786 -5.30855 7.28899 -30.5763 -68.227 0.0 0.0 0.0 25.037 -7.94526 -11.6844 -36.7655 -0.273918 5.54014 20.1217 8.62904 -2.74673 12.3742 -0.0 -0.0 -0.0 0.0 -0.0 15.3482 -5.25992 -5.91676 -1.21037 -0.047942 -0.179558 21.9558 11.7662 3.13522 -23.8464 0.0 0.0 0.0 0.0 0.0 
2506.5286378 743.092 -1394.27886547 -161.878326434 59.4652134303 164.257719944 4.80755 -0.0145341 0.0169604 4.80755 -0.0155839 0.0160012 4.80754 -0.0174968 0.0138837 4.80754 -0.0150846 0.0164728 -22.162 14.4636 -0.684156 -23.6513 28.1881 6.44836 -0.0 0.0 -0.0 -0.604567 17.8253 1.16412 -30.4837 -30.3319 69.3082 0.22743 -6.42811 0.0127713 59.5557 -1.73453 -7.06679 -4.44501 28.9918 -12.6886 -0.0 0.0 -0.0 11.3125 -22.0878 -19.1471 -2.69673 26.8299 -69.3344 2.30592 48.7929 -1.04595 -77.2172 7.46786 -5.30855 7.28899 -30.5763 -68.227 0.0 0.0 0.0 25.037 -7.94526 -11.6844 -36.7655 -0.273918 5.54014 20.1217 8.62904 -2.74673 12.3742 -0.0 -0.0 -0.0 0.0 -0.0 15.3482 -5.25992 -5.91676 -1.21037 -0.047942 -0.179558 21.9558 11.7662 3.13522 -23.8464 0.0 0.0 0.0 0.0 0.0 
2506.91151606 743.092 -1392.87413304 -162.021279977 59.2051218649 164.423912557 4.80755 -0.0145341 0.0169604 4.80755 -0.0155839 0.0160012 4.80754 -0.0174968 0.0138837 4.80754 -0.0150846 0.0164728 -22.162 14.4636 -0.684156 -23.6513 28.1881 6.44836 -0.0 0.0 -0.0 -0.604567 17.8253 1.16412 -30.4837 -30.3319 69.3082 0.22743 -6.42811 0.0127713 59.5557 -1.73453 -7.06679 -4.44501 28.9918 -12.6886 -0.0 0.0 -0.0 11.3125 -22.0878 -19.1471 -2.69673 26.8299 -69.3344 2.30592 48.7929 -1.04595 -77.2172 7.46786 -5.30855 7.28899 -30.5763 -68.227 0.0 0.0 0.0 25.037 -7.94526 -11.6844 -36.7655 -0.273918 5.54014 20.1217 8.62904 -2.74673 12.3742 -0.0 -0.0 -0.0 0.0 -0.0 15.3482 -5.25992 -5.91676 -1.21037 -0.047942 -0.179558 21.9558 11.7662 3.13522 -23.8464 0.0 0.0 0.0 0.0 0.0 
2508.14393911 743.092 -1388.52120302 -162.449517274 58.3956460458 164.924546222 4.80755 -0.0145341 0.0169604 4.80755 -0.0155839 0.0160012 4.80754 -0.0174968 0.0138837 4.80754 -0.0150846 0.0164728 -22.162 14.4636 -0.684156 -23.6513 28.1881 6.44836 -0.0 0.0 -0.0 -0.604567 17.8253 1.16412 -30.4837 -30.3319 69.3082 0.22743 -6.42811 0.0127713 59.5557 -1.73453 -7.06679 -4.44501 28.9918 -12.6886 -0.0 0.0 -0.0 11.3125 -22.0878 -19.1471 -2.69673 26.8299 -69.3344 2.30592 48.7929 -1.04595 -77.2172 7.46786 -5.30855 7.28899 -30.5763 -68.227 0.0 0.0 0.0 25.037 -7.94526 -11.6844 -36.7655 -0.273918 5.54014 20.1217 8.62904 -2.74673 12.3742 -0.0 -0.0 -0.0 0.0 -0.0 15.3482 -5.25992 -5.91676 -1.21037 -0.047942 -0.179558 21.9558 11.7662 3.13522 -23.8464 0.0 0.0 0.0 0.0 0.0 
2508.92051774 743.092 -1385.89786196 -162.697323892 57.9052110847 165.216273985 4.80755 -0.0145341 0.0169604 4.80755 -0.0155839 0.0160012 4.80754 -0.0174968 0.0138837 4.80754 -0.0150846 0.0164728 -22.162 14.4636 -0.684156 -23.6513 28.1881 6.44836 -0.0 0.0 -0.0 -0.604567 17.8253 1.16412 -30.4837 -30.3319 69.3082 0.22743 -6.42811 0.0127713 59.5557 -1.73453 -7.06679 -4.44501 28.9918 -12.6886 -0.0 0.0 -0.0 11.3125 -22.0878 -19.1471 -2.69673 26.8299 -69.3344 2.30592 48.7929 -1.04595 -77.2172 7.46786 -5.30855 7.28899 -30.5763 -68.227 0.0 0.0 0.0 25.037 -7.94526 -11.6844 -36.7655 -0.273918 5.54014 20.1217 8.62904 -2.74673 12.3742 -0.0 -0.0 -0.0 0.0 -0.0 15.3482 -5.25992 -5.91676 -1.21037 -0.047942 -0.179558 21.9558 11.7662 3.13522 -23.8464 0.0 0.0 0.0 0.0 0.0 
2508.57899572 743.092 -1387.04091701 -162.590268127 58.1191478448 165.090053136 4.80755 -0.0145341 0.0169604 4.80755 -0.0155839 0.0160012 4.80754 -0.0174968 0.0138837 4.80754 -0.0150846 0.0164728 -22.162 14.4636 -0.684156 -23.6513 28.1881 6.44836 -0.0 0.0 -0.0 -0.604567 17.8253 1.16412 -30.4837 -30.3319 69.3082 0.22743 -6.42811 0.0127713 59.5557 -1.73453 -7.06679 -4.44501 28.9918 -12.6886 -0.0 0.0 -0.0 11.3125 -22.0878 -19.1471 -2.69673 26.8299 -69.3344 2.30592 48.7929 -1.04595 -77.2172 7.46786 -5.30855 7.28899 -30.5763 -68.227 0.0 0.0 0.0 25.037 -7.94526 -11.6844 -36.7655 -0.273918 5.54014 20.1217 8.62904 -2.74673 12.3742 -0.0 -0.0 -0.0 0.0 -0.0 15.3482 -5.25992 -5.91676 -1.21037 -0.047942 -0.179558 21.9558 11.7662 3.13522 -23.8464 0.0 0.0 0.0 0.0 0.0 
2508.81350006 743.092 -1386.25429458 -162.664091803 57.9719620654 165.177061144 4.80755 -0.0145341 0.0169604 4.80755 -0.0155839 0.0160012 4.80754 -0.0174968 0.0138837 4.80754 -0.0150846 0.0164728 -22.162 14.4636 -0.684156 -23.6513 28.1881 6.44836 -0.0 0.0 -0.0 -0.604567 17.8253 1.16412 -30.4837 -30.3319 69.3082 0.22743 -6.42811 0.0127713 59.5557 -1.73453 -7.06679 -4.44501 28.9918 -12.6886 -0.0 0.0 -0.0 11.3125 -22.0878 -19.1471 -2.69673 26.8299 -69.3344 2.30592 48.7929 -1.04595 -77.2172 7.46786 -5.30855 7.28899 -30.5763 -68.227 0.0 0.0 0.0 25.037 -7.94526 -11.6844 -36.7655 -0.273918 5.54014 20.1217 8.62904 -2.74673 12.3742 -0.0 -0.0 -0.0 0.0 -0.0 15.3482 -5.25992 -5.91676 -1.21037 -0.047942 -0.179558 21.9558 11.7662 3.13522 -23.8464 0.0 0.0 0.0 0.0 0.0 
